# xmcd
#
# Track frame offsets: 
#        182
#        9960
#        23252
#        35140
#        46825
#        58337
#        73005
#        87732
#        98735
#        116592
#        125872
#        137732
#        150052
#        163207
#        175592
#        187275
#        204880
#        213907
#        224335
#        237092
#        247132
#        257295
#        268730
#        279567
#        291742
#
# Disc length: 4043 seconds
#
# Revision: 1
# Processed by: cddbd v1.5.2PL0 Copyright (c) Steve Scherf et al.
# Submitted via: ExactAudioCopy v1.3
#
DISCID=750fc919
DTITLE=Various Artist - This Is Soul
DYEAR=1900
DGENRE=Soul
TTITLE0=The Drifters - Save The Last Dance For Me
TTITLE1=Eddie Floyd - Knock On Wood
TTITLE2=Sam and Dave - Hold On I'm Comin
TTITLE3=Brook Benton - Kiddio
TTITLE4=The Tams - Hey Girl Don't Bother Me
TTITLE5=Percy Sledge - Warm And Tender Love
TTITLE6=George McCrae - Rock Your Baby
TTITLE7=Brook Benton - It's Just A Matter
TTITLE8=Brook Benton - Rainy Night In Georgia
TTITLE9=Gladys Knight - Every Beat Of My Heart
TTITLE10=The Drifters - Under The Boardwalk
TTITLE11=Archie Bell and The Drells - Tighten Up
TTITLE12=Percy Sledge - When A Man Loves A Woman
TTITLE13=Wilbert Harrison - Let's Stick Together
TTITLE14=The Tams - What Kind Of Fool
TTITLE15=James Brown - Please,Please,Please
TTITLE16=The Drifters - Saturday Night At The Movies
TTITLE17=Sam and Dave - Soul Sister Brown Sugar
TTITLE18=Dobie Gray - The In Crowd
TTITLE19=Gladys Knight - Operator
TTITLE20=The Drifters - There Goes My Baby
TTITLE21=Sam and Dave - Soul Man
TTITLE22=James Brown - Papa's Got A Brand New Bag
TTITLE23=Sam and Dave - I Thank You
TTITLE24=Jerry Butler - Make It Easy On Yourself
EXTD=
EXTT0=
EXTT1=
EXTT2=
EXTT3=
EXTT4=
EXTT5=
EXTT6=
EXTT7=
EXTT8=
EXTT9=
EXTT10=
EXTT11=
EXTT12=
EXTT13=
EXTT14=
EXTT15=
EXTT16=
EXTT17=
EXTT18=
EXTT19=
EXTT20=
EXTT21=
EXTT22=
EXTT23=
EXTT24=
PLAYORDER=
